<?xml version="1.0" encoding="UTF-8"?><svg id="Calque_2" xmlns="http://www.w3.org/2000/svg" viewBox="0 0 518 518.97"><defs><style>.cls-1{fill:#50bfab;}.cls-2{fill:#5b48d9;}.cls-3{fill:#f2f2f2;}</style></defs><g id="Calque_1-2"><path class="cls-2" d="M518,186.12v145.76c0,80.31-50.87,148.74-122.14,174.83-19.95,7.3-41.5,11.29-63.98,11.29H186.11c-26.28,0-51.28-5.44-73.94-15.27-29.55-12.8-55.12-33.05-74.36-58.38C14.08,413.11,0,374.14,0,331.88V186.12C0,83.33,83.32,0,186.11,0h145.77c102.79,0,186.12,83.33,186.12,186.12Z"/><g><path class="cls-3" d="M380.47,315.37c-12.37,44.09-36.93,81.47-69.01,109.51-28.49,24.92-62.92,42.46-100,50.81-31.83,7.15-65.62,7.52-99.29-.06-3.89-.87-7.78-1.85-11.66-2.94-22.82-6.4-43.84-16.06-62.7-28.34C14.08,413.11,0,374.14,0,331.88v-123.22l114.95,32.24,218.73,61.35,46.79,13.12Z"/><path class="cls-1" d="M340.52,313.66c0,40.4-10.56,78.35-29.06,111.22-22.64,40.23-57.19,72.86-98.86,93.12-.38,.19-.76,.37-1.14,.55v-.55h-25.35c-26.28,0-51.28-5.44-73.94-15.27-29.55-12.8-55.12-33.05-74.36-58.38C14.08,413.11,0,374.14,0,331.88v-18.22H340.52Z"/><path class="cls-1" d="M210.58,518.97c.29-.14,.59-.28,.88-.42v.42h-.88Z"/><path class="cls-1" d="M395.86,268.97v237.74c-19.95,7.3-41.5,11.29-63.98,11.29h-119.28c-.38,.19-.76,.37-1.14,.55v-.55h-25.35c-26.28,0-51.28-5.44-73.94-15.27v-233.76c0-9.61,.96-19,2.78-28.07,13.02-64.89,70.34-113.77,139.06-113.77,39.17,0,74.63,15.87,100.3,41.54s41.55,61.13,41.55,100.3Z"/><path class="cls-3" d="M395.86,294.15v212.56c-19.95,7.3-41.5,11.29-63.98,11.29h-119.28c-.38,.19-.76,.37-1.14,.55v-44.26c0-69.25,39.14-129.81,96.4-160.63,8.25-4.45,16.88-8.27,25.82-11.41,18.82-6.63,39.04-10.23,60.05-10.23,1.17,0,2.13,.96,2.13,2.13Z"/><circle class="cls-2" cx="294.79" cy="231.74" r="28.37"/><rect class="cls-3" x="415.36" y="260.1" width="102.64" height="31.92"/></g></g></svg>