<svg width="618" height="273" viewBox="0 0 618 273" fill="none" xmlns="http://www.w3.org/2000/svg">
<path d="M437.066 97.84C435.893 97.84 434.879 97.5933 434.026 97.1C433.186 96.62 432.539 95.92 432.086 95L434.426 93.72C434.653 94.1467 434.979 94.5067 435.406 94.8C435.846 95.0933 436.386 95.24 437.026 95.24C437.599 95.24 438.079 95.1067 438.466 94.84C438.866 94.5867 439.173 94.2267 439.386 93.76C439.599 93.3067 439.706 92.7733 439.706 92.16V90.62L440.266 90.4C440.173 90.9867 439.986 91.48 439.706 91.88C439.439 92.28 439.086 92.5867 438.646 92.8C438.206 93.0133 437.679 93.12 437.066 93.12C435.999 93.12 435.126 92.9067 434.446 92.48C433.766 92.0533 433.259 91.4667 432.926 90.72C432.606 89.96 432.446 89.0933 432.446 88.12V83.1H435.246V88.02C435.246 88.74 435.433 89.3267 435.806 89.78C436.179 90.22 436.719 90.44 437.426 90.44C437.853 90.44 438.233 90.3333 438.566 90.12C438.913 89.9067 439.179 89.6133 439.366 89.24C439.566 88.8533 439.666 88.4267 439.666 87.96V83.1H442.546V92.12C442.546 93.2667 442.313 94.2667 441.846 95.12C441.393 95.9867 440.753 96.6533 439.926 97.12C439.113 97.6 438.159 97.84 437.066 97.84ZM450.076 93.26C449.062 93.26 448.149 93.0267 447.336 92.56C446.536 92.08 445.896 91.4467 445.416 90.66C444.949 89.86 444.716 88.98 444.716 88.02C444.716 87.06 444.949 86.1867 445.416 85.4C445.896 84.6133 446.542 83.9867 447.356 83.52C448.169 83.04 449.076 82.8 450.076 82.8C451.102 82.8 452.016 83.04 452.816 83.52C453.629 83.9867 454.269 84.62 454.736 85.42C455.216 86.2067 455.456 87.0733 455.456 88.02C455.456 88.98 455.216 89.86 454.736 90.66C454.269 91.4467 453.629 92.08 452.816 92.56C452.002 93.0267 451.089 93.26 450.076 93.26ZM450.076 90.6C450.569 90.6 451.002 90.4867 451.376 90.26C451.762 90.02 452.062 89.7067 452.276 89.32C452.502 88.9333 452.616 88.5067 452.616 88.04C452.616 87.5733 452.502 87.1467 452.276 86.76C452.062 86.3733 451.762 86.0667 451.376 85.84C451.002 85.6 450.569 85.48 450.076 85.48C449.596 85.48 449.162 85.6 448.776 85.84C448.402 86.0667 448.102 86.3733 447.876 86.76C447.662 87.1467 447.556 87.5733 447.556 88.04C447.556 88.5067 447.662 88.9333 447.876 89.32C448.102 89.7067 448.402 90.02 448.776 90.26C449.162 90.4867 449.596 90.6 450.076 90.6ZM462.225 90.52C462.718 90.52 463.125 90.3933 463.445 90.14C463.778 89.8733 464.025 89.5267 464.185 89.1C464.345 88.66 464.425 88.1867 464.425 87.68V83.1H467.265V88.02C467.265 88.9933 467.071 89.88 466.685 90.68C466.311 91.4667 465.751 92.0933 465.005 92.56C464.258 93.0267 463.331 93.26 462.225 93.26C461.131 93.26 460.211 93.0267 459.465 92.56C458.718 92.0933 458.151 91.46 457.765 90.66C457.391 89.86 457.205 88.98 457.205 88.02V83.1H460.045V87.7C460.045 88.1933 460.125 88.66 460.285 89.1C460.445 89.5267 460.685 89.8733 461.005 90.14C461.338 90.3933 461.745 90.52 462.225 90.52ZM472.372 93H469.532V87.32C469.532 86.4667 469.692 85.7067 470.012 85.04C470.332 84.36 470.819 83.8267 471.472 83.44C472.125 83.04 472.939 82.84 473.912 82.84C474.245 82.84 474.572 82.8733 474.892 82.94C475.212 82.9933 475.499 83.0733 475.752 83.18V85.94C475.512 85.7933 475.252 85.6867 474.972 85.62C474.692 85.5533 474.425 85.52 474.172 85.52C473.612 85.52 473.172 85.6933 472.852 86.04C472.532 86.3733 472.372 86.8333 472.372 87.42V93ZM484.245 91.36L481.225 83.1H484.245L486.865 90.56C486.838 90.5467 486.825 90.5467 486.825 90.56C486.838 90.56 486.845 90.56 486.845 90.56C486.845 90.5467 486.832 90.5467 486.805 90.56L489.425 83.1H492.445L489.385 91.36C489.145 92 488.812 92.48 488.385 92.8C487.958 93.12 487.438 93.28 486.825 93.28C486.225 93.28 485.698 93.12 485.245 92.8C484.805 92.48 484.472 92 484.245 91.36ZM494.151 83.1H496.991V93H494.151V83.1ZM495.571 81.62C495.251 81.62 494.951 81.5467 494.671 81.4C494.404 81.24 494.191 81.0267 494.031 80.76C493.884 80.48 493.811 80.18 493.811 79.86C493.811 79.54 493.884 79.2467 494.031 78.98C494.191 78.7133 494.404 78.5 494.671 78.34C494.951 78.18 495.251 78.1 495.571 78.1C495.891 78.1 496.184 78.18 496.451 78.34C496.717 78.5 496.924 78.7133 497.071 78.98C497.231 79.2467 497.311 79.54 497.311 79.86C497.311 80.18 497.231 80.48 497.071 80.76C496.924 81.0267 496.717 81.24 496.451 81.4C496.184 81.5467 495.891 81.62 495.571 81.62ZM502.606 93H499.766V87.32C499.766 86.4667 499.926 85.7067 500.246 85.04C500.566 84.36 501.053 83.8267 501.706 83.44C502.36 83.04 503.173 82.84 504.146 82.84C504.48 82.84 504.806 82.8733 505.126 82.94C505.446 82.9933 505.733 83.0733 505.986 83.18V85.94C505.746 85.7933 505.486 85.6867 505.206 85.62C504.926 85.5533 504.66 85.52 504.406 85.52C503.846 85.52 503.406 85.6933 503.086 86.04C502.766 86.3733 502.606 86.8333 502.606 87.42V93ZM512.972 93.28C512.025 93.28 511.232 93.1067 510.592 92.76C509.965 92.4 509.492 91.9067 509.172 91.28C508.852 90.64 508.692 89.9067 508.692 89.08V80.58H511.532V89C511.532 89.5467 511.685 89.9733 511.992 90.28C512.299 90.5867 512.712 90.74 513.232 90.74C513.525 90.74 513.839 90.7 514.172 90.62C514.505 90.54 514.792 90.42 515.032 90.26V92.8C514.779 92.9467 514.459 93.06 514.072 93.14C513.699 93.2333 513.332 93.28 512.972 93.28ZM515.032 85.5H506.872V83.1H515.032V85.5ZM521.951 90.52C522.444 90.52 522.851 90.3933 523.171 90.14C523.504 89.8733 523.751 89.5267 523.911 89.1C524.071 88.66 524.151 88.1867 524.151 87.68V83.1H526.991V88.02C526.991 88.9933 526.798 89.88 526.411 90.68C526.038 91.4667 525.478 92.0933 524.731 92.56C523.984 93.0267 523.058 93.26 521.951 93.26C520.858 93.26 519.938 93.0267 519.191 92.56C518.444 92.0933 517.878 91.46 517.491 90.66C517.118 89.86 516.931 88.98 516.931 88.02V83.1H519.771V87.7C519.771 88.1933 519.851 88.66 520.011 89.1C520.171 89.5267 520.411 89.8733 520.731 90.14C521.064 90.3933 521.471 90.52 521.951 90.52ZM533.659 93.26C532.699 93.26 531.852 93.0267 531.119 92.56C530.385 92.08 529.805 91.4467 529.379 90.66C528.965 89.86 528.759 88.98 528.759 88.02C528.759 87.0733 528.992 86.2067 529.459 85.42C529.939 84.62 530.579 83.9867 531.379 83.52C532.192 83.04 533.105 82.8 534.119 82.8C535.145 82.8 536.065 83.0333 536.879 83.5C537.692 83.9533 538.332 84.5733 538.799 85.36C539.265 86.1333 539.499 87.02 539.499 88.02V93H536.799V89.42L537.659 89.18C537.659 89.9533 537.492 90.6533 537.159 91.28C536.825 91.8933 536.365 92.38 535.779 92.74C535.192 93.0867 534.485 93.26 533.659 93.26ZM534.119 90.6C534.612 90.6 535.045 90.4867 535.419 90.26C535.805 90.02 536.105 89.7067 536.319 89.32C536.545 88.9333 536.659 88.5067 536.659 88.04C536.659 87.5733 536.545 87.1467 536.319 86.76C536.105 86.3733 535.805 86.0667 535.419 85.84C535.045 85.6 534.612 85.48 534.119 85.48C533.639 85.48 533.205 85.6 532.819 85.84C532.445 86.0667 532.145 86.3733 531.919 86.76C531.705 87.1467 531.599 87.5733 531.599 88.04C531.599 88.5067 531.705 88.9333 531.919 89.32C532.145 89.7067 532.445 90.02 532.819 90.26C533.205 90.4867 533.639 90.6 534.119 90.6ZM542.276 78.54H545.116V93H542.276V78.54ZM553.936 78.54H556.776V93H553.936V78.54ZM559.952 83.1H562.792V93H559.952V83.1ZM561.372 81.62C561.052 81.62 560.752 81.5467 560.472 81.4C560.205 81.24 559.992 81.0267 559.832 80.76C559.685 80.48 559.612 80.18 559.612 79.86C559.612 79.54 559.685 79.2467 559.832 78.98C559.992 78.7133 560.205 78.5 560.472 78.34C560.752 78.18 561.052 78.1 561.372 78.1C561.692 78.1 561.985 78.18 562.252 78.34C562.518 78.5 562.725 78.7133 562.872 78.98C563.032 79.2467 563.112 79.54 563.112 79.86C563.112 80.18 563.032 80.48 562.872 80.76C562.725 81.0267 562.518 81.24 562.252 81.4C561.985 81.5467 561.692 81.62 561.372 81.62ZM570.927 93.28C569.901 93.28 568.981 93.0533 568.167 92.6C567.367 92.1467 566.734 91.5267 566.267 90.74C565.801 89.9533 565.567 89.06 565.567 88.06V78.54H568.407V86.06L567.027 86.3C567.027 85.6867 567.214 85.1133 567.587 84.58C567.974 84.0467 568.474 83.62 569.087 83.3C569.701 82.98 570.367 82.82 571.087 82.82C572.114 82.82 573.014 83.04 573.787 83.48C574.574 83.92 575.187 84.54 575.627 85.34C576.067 86.1267 576.287 87.0333 576.287 88.06C576.287 89.0067 576.054 89.88 575.587 90.68C575.121 91.4667 574.481 92.1 573.667 92.58C572.867 93.0467 571.954 93.28 570.927 93.28ZM570.927 90.6C571.421 90.6 571.854 90.4867 572.227 90.26C572.614 90.02 572.914 89.7067 573.127 89.32C573.341 88.9333 573.447 88.5133 573.447 88.06C573.447 87.5933 573.341 87.1667 573.127 86.78C572.914 86.38 572.614 86.0667 572.227 85.84C571.854 85.6133 571.421 85.5 570.927 85.5C570.447 85.5 570.014 85.6133 569.627 85.84C569.254 86.0667 568.954 86.38 568.727 86.78C568.514 87.1667 568.407 87.5933 568.407 88.06C568.407 88.5133 568.514 88.9333 568.727 89.32C568.954 89.7067 569.254 90.02 569.627 90.26C570.014 90.4867 570.447 90.6 570.927 90.6ZM581.024 93H578.184V87.32C578.184 86.4667 578.344 85.7067 578.664 85.04C578.984 84.36 579.471 83.8267 580.124 83.44C580.778 83.04 581.591 82.84 582.564 82.84C582.898 82.84 583.224 82.8733 583.544 82.94C583.864 82.9933 584.151 83.0733 584.404 83.18V85.94C584.164 85.7933 583.904 85.6867 583.624 85.62C583.344 85.5533 583.078 85.52 582.824 85.52C582.264 85.52 581.824 85.6933 581.504 86.04C581.184 86.3733 581.024 86.8333 581.024 87.42V93ZM590.202 93.26C589.242 93.26 588.395 93.0267 587.662 92.56C586.928 92.08 586.348 91.4467 585.922 90.66C585.508 89.86 585.302 88.98 585.302 88.02C585.302 87.0733 585.535 86.2067 586.002 85.42C586.482 84.62 587.122 83.9867 587.922 83.52C588.735 83.04 589.648 82.8 590.662 82.8C591.688 82.8 592.608 83.0333 593.422 83.5C594.235 83.9533 594.875 84.5733 595.342 85.36C595.808 86.1333 596.042 87.02 596.042 88.02V93H593.342V89.42L594.202 89.18C594.202 89.9533 594.035 90.6533 593.702 91.28C593.368 91.8933 592.908 92.38 592.322 92.74C591.735 93.0867 591.028 93.26 590.202 93.26ZM590.662 90.6C591.155 90.6 591.588 90.4867 591.962 90.26C592.348 90.02 592.648 89.7067 592.862 89.32C593.088 88.9333 593.202 88.5067 593.202 88.04C593.202 87.5733 593.088 87.1467 592.862 86.76C592.648 86.3733 592.348 86.0667 591.962 85.84C591.588 85.6 591.155 85.48 590.662 85.48C590.182 85.48 589.748 85.6 589.362 85.84C588.988 86.0667 588.688 86.3733 588.462 86.76C588.248 87.1467 588.142 87.5733 588.142 88.04C588.142 88.5067 588.248 88.9333 588.462 89.32C588.688 89.7067 588.988 90.02 589.362 90.26C589.748 90.4867 590.182 90.6 590.662 90.6ZM601.259 93H598.419V87.32C598.419 86.4667 598.579 85.7067 598.899 85.04C599.219 84.36 599.705 83.8267 600.359 83.44C601.012 83.04 601.825 82.84 602.799 82.84C603.132 82.84 603.459 82.8733 603.779 82.94C604.099 82.9933 604.385 83.0733 604.639 83.18V85.94C604.399 85.7933 604.139 85.6867 603.859 85.62C603.579 85.5533 603.312 85.52 603.059 85.52C602.499 85.52 602.059 85.6933 601.739 86.04C601.419 86.3733 601.259 86.8333 601.259 87.42V93ZM611.05 97.84C609.877 97.84 608.864 97.5933 608.01 97.1C607.17 96.62 606.524 95.92 606.07 95L608.41 93.72C608.637 94.1467 608.964 94.5067 609.39 94.8C609.83 95.0933 610.37 95.24 611.01 95.24C611.584 95.24 612.064 95.1067 612.45 94.84C612.85 94.5867 613.157 94.2267 613.37 93.76C613.584 93.3067 613.69 92.7733 613.69 92.16V90.62L614.25 90.4C614.157 90.9867 613.97 91.48 613.69 91.88C613.424 92.28 613.07 92.5867 612.63 92.8C612.19 93.0133 611.664 93.12 611.05 93.12C609.984 93.12 609.11 92.9067 608.43 92.48C607.75 92.0533 607.244 91.4667 606.91 90.72C606.59 89.96 606.43 89.0933 606.43 88.12V83.1H609.23V88.02C609.23 88.74 609.417 89.3267 609.79 89.78C610.164 90.22 610.704 90.44 611.41 90.44C611.837 90.44 612.217 90.3333 612.55 90.12C612.897 89.9067 613.164 89.6133 613.35 89.24C613.55 88.8533 613.65 88.4267 613.65 87.96V83.1H616.53V92.12C616.53 93.2667 616.297 94.2667 615.83 95.12C615.377 95.9867 614.737 96.6533 613.91 97.12C613.097 97.6 612.144 97.84 611.05 97.84Z" fill="#5B48D9"/>
<path d="M342.565 187.277C329.877 231.458 300.232 268.823 260.1 291.216C219.969 313.608 172.611 319.209 128.366 306.796C84.121 294.382 46.5821 264.963 23.9447 224.96C1.30723 184.957 -4.59012 137.62 7.54011 93.2832" fill="#5B48D9"/>
<path d="M311.959 185.962C311.959 232.119 293.629 276.386 261.002 309.025C228.374 341.663 184.122 359.999 137.98 359.999C91.8374 359.999 47.585 341.663 14.9575 309.025C-17.6701 276.386 -36 232.119 -36 185.962" fill="#50BFAB"/>
<path d="M354.354 151.705V343.311H168.815C157.996 343.323 147.249 341.555 137.003 338.078V151.705C137.006 122.874 148.458 95.2242 168.84 74.8383C189.221 54.4525 216.863 43 245.685 43V43C274.506 43 302.146 54.4529 322.526 74.8391C342.905 95.2253 354.354 122.875 354.354 151.705Z" fill="#50BFAB"/>
<path d="M354.354 171.01V343.311H213.078V309.065C213.078 232.242 275.917 169.37 352.727 169.37C353.16 169.373 353.574 169.547 353.878 169.855C354.183 170.162 354.354 170.577 354.354 171.01Z" fill="#5B48D9"/>
<path d="M276.93 144.917C288.933 144.917 298.663 135.183 298.663 123.176C298.663 111.168 288.933 101.435 276.93 101.435C264.926 101.435 255.196 111.168 255.196 123.176C255.196 135.183 264.926 144.917 276.93 144.917Z" fill="#F2F2F2"/>
<path d="M369.302 144.916H510.554C517.037 144.916 523.255 147.492 527.84 152.078C532.424 156.665 535 162.885 535 169.37H369.302V144.916Z" fill="#5B48D9"/>
<g clip-path="url(#clip0_194_2)">
<path d="M389.61 64.9153C383.607 64.962 377.831 62.6109 373.545 58.3765C371.491 56.3267 369.858 53.8885 368.741 51.2017C367.592 48.4579 367 45.5099 367 42.5317C367 39.5535 367.592 36.6055 368.741 33.8616C369.876 31.1944 371.507 28.7702 373.545 26.7195C375.604 24.6512 378.044 23.0073 380.728 21.8798C383.539 20.7029 386.566 20.1372 389.61 20.2198C393.562 20.2391 397.447 21.2477 400.916 23.1549C404.369 25.0704 407.06 28.0827 408.989 32.1919L399.045 37.6806C398.16 35.8908 396.82 34.3694 395.161 33.2713C393.501 32.2014 391.564 31.65 389.593 31.6864C387.709 31.6592 385.854 32.1642 384.24 33.1442C381.839 34.6486 380.106 37.0276 379.401 39.7863C378.696 42.5451 379.074 45.4714 380.456 47.9568C381.363 49.5858 382.664 50.9569 384.24 51.942C385.846 52.9459 387.703 53.4654 389.593 53.4389C391.57 53.4741 393.511 52.9057 395.161 51.8083C396.8 50.7056 398.136 49.2035 399.045 47.4415L408.989 52.9236C407.062 57.0328 404.371 60.044 400.916 61.9573C397.449 63.8725 393.563 64.889 389.61 64.9153Z" fill="#50BFAB"/>
<path d="M436.868 64.915C432.552 64.915 428.685 63.9018 425.267 61.8755C421.9 59.9128 419.09 57.1108 417.107 53.7387C415.093 50.3358 414.049 46.4394 414.09 42.4776C414.045 38.5287 415.089 34.6448 417.107 31.2589C419.151 27.8319 422.048 25.002 425.511 23.0492C428.974 21.0965 432.883 20.0885 436.852 20.125C441.215 20.125 445.111 21.1381 448.54 23.1645C451.907 25.1354 454.716 27.9423 456.7 31.3176C458.676 34.7213 459.717 38.5933 459.717 42.5363C459.717 46.4793 458.676 50.3513 456.7 53.755C454.658 57.2107 451.748 60.0632 448.264 62.0253C444.779 63.9874 440.843 64.9897 436.852 64.9313L436.868 64.915ZM436.868 53.5235C438.826 53.5612 440.756 53.0424 442.435 52.0265C444.042 51.0356 445.37 49.6456 446.291 47.9897C447.212 46.3337 447.696 44.4672 447.696 42.5689C447.696 40.6706 447.212 38.8041 446.291 37.1482C445.37 35.4922 444.042 34.1022 442.435 33.1113C440.756 32.0954 438.826 31.5767 436.868 31.6144C434.937 31.5845 433.037 32.1033 431.385 33.1113C429.778 34.1022 428.45 35.4922 427.529 37.1482C426.608 38.8041 426.124 40.6706 426.124 42.5689C426.124 44.4672 426.608 46.3337 427.529 47.9897C428.45 49.6456 429.778 51.0356 431.385 52.0265C433.037 53.0345 434.937 53.5533 436.868 53.5235Z" fill="#50BFAB"/>
<path d="M469.421 1.88477H481.491V63.8029H469.421V1.88477Z" fill="#5B48D9"/>
<path d="M501.042 15.0738C499.718 15.0844 498.414 14.7472 497.258 14.0954C496.114 13.4568 495.172 12.5062 494.539 11.3527C493.891 10.1904 493.556 8.87701 493.568 7.54359C493.565 6.55312 493.756 5.57174 494.13 4.65585C494.504 3.73996 495.054 2.90761 495.749 2.20663C496.443 1.50566 497.269 0.949887 498.177 0.571252C499.085 0.192617 500.059 -0.00141379 501.042 0.000311002C502.359 -0.0120375 503.653 0.343561 504.781 1.02761C505.894 1.69096 506.817 2.63512 507.458 3.76706C508.109 4.91417 508.444 6.21569 508.429 7.53706C508.441 8.87049 508.106 10.1839 507.458 11.3462C506.833 12.4912 505.907 13.4403 504.781 14.0889C503.644 14.7461 502.353 15.0861 501.042 15.0738ZM495.005 21.4104H507.076V63.8067H495.005V21.4104Z" fill="#5B48D9"/>
<path d="M541.671 64.9998C537.308 64.9998 533.412 64.029 529.983 62.0875C526.622 60.2141 523.819 57.4689 521.865 54.1365C519.882 50.7666 518.89 46.9411 518.89 42.6602V1.88477H530.96V34.0831L525.095 35.1137C525.105 32.4605 525.954 29.8797 527.52 27.7465C529.166 25.4369 531.337 23.5582 533.851 22.2676C536.475 20.8944 539.394 20.1911 542.351 20.2195C546.714 20.2195 550.553 21.162 553.868 23.047C557.145 24.8993 559.837 27.6449 561.636 30.9686C563.512 34.3603 564.449 38.2532 564.449 42.6471C564.483 46.576 563.453 50.4397 561.471 53.8234C559.514 57.2044 556.718 60.0142 553.356 61.9766C549.927 63.9899 546.032 64.9976 541.671 64.9998ZM541.671 53.5234C543.578 53.5617 545.459 53.0708 547.108 52.1045C548.756 51.1382 550.11 49.7336 551.019 48.0445C551.926 46.393 552.395 44.5343 552.382 42.6471C552.398 40.7203 551.929 38.8209 551.019 37.1258C550.146 35.4739 548.838 34.0962 547.239 33.1439C545.551 32.1527 543.625 31.6484 541.671 31.6861C539.775 31.6511 537.906 32.1395 536.265 33.0984C534.625 34.0572 533.276 35.45 532.365 37.1258C531.429 38.812 530.944 40.715 530.96 42.6471C530.948 44.5396 531.433 46.4018 532.365 48.0445C533.279 49.6809 534.595 51.0524 536.188 52.0265C537.84 53.0345 539.74 53.5533 541.671 53.5234Z" fill="#5B48D9"/>
<path d="M584.595 63.8026H572.541V39.4802C572.541 35.8276 573.221 32.5588 574.581 29.6736C575.921 26.8159 578.083 24.4298 580.786 22.825C583.563 21.1422 587.016 20.3008 591.144 20.3008C592.541 20.2985 593.936 20.4274 595.31 20.6856C596.562 20.9112 597.787 21.2698 598.964 21.7553V33.5741C597.938 32.944 596.819 32.4817 595.649 32.2044C594.536 31.927 593.394 31.7826 592.247 31.7739C589.874 31.7739 588.004 32.5022 586.638 33.9589C585.272 35.4156 584.592 37.3996 584.599 39.9107L584.595 63.8026Z" fill="#5B48D9"/>
<path d="M610.604 15.0738C609.28 15.0848 607.977 14.7476 606.823 14.0954C605.679 13.456 604.736 12.5057 604.101 11.3527C603.453 10.1899 603.119 8.8768 603.13 7.54354C603.126 6.55308 603.317 5.5717 603.692 4.65581C604.066 3.73991 604.616 2.90756 605.31 2.20659C606.005 1.50562 606.83 0.949843 607.739 0.571208C608.647 0.192573 609.621 -0.00145804 610.604 0.000266747C611.921 -0.0111539 613.216 0.344356 614.346 1.02756C615.469 1.69678 616.397 2.6516 617.039 3.79635C617.68 4.9411 618.012 6.23557 618 7.55006C618.011 8.8833 617.676 10.1963 617.029 11.3592C616.404 12.5042 615.478 13.4533 614.352 14.1019C613.21 14.7553 611.917 15.0908 610.604 15.0738ZM604.586 21.4104H616.657V63.8067H604.586V21.4104Z" fill="#5B48D9"/>
</g>
<defs>
<clipPath id="clip0_194_2">
<rect width="251" height="65" fill="white" transform="translate(367)"/>
</clipPath>
</defs>
</svg>
